Coordinates
version=1
nRows=10
nColumns=33
inDegrees=yes

Units are S.I. units (second, meters, Newtons, ...)
Angles are in degrees.

endheader
time	ground_thorax_rot_x	ground_thorax_rot_y	ground_thorax_rot_z	ground_thorax_tx	ground_thorax_ty	ground_thorax_tz	clav_prot_r	clav_elev_r	scapula_abduction_r	scapula_elevation_r	scapula_upward_rot_r	scapula_winging_r	shoulder_elv_r	plane_of_elev_r	axial_rot_r	elbow_flexion_r	pro_sup_r	wrist_flex_r	wrist_dev_r	clav_prot_l	clav_elev_l	scapula_abduction_l	scapula_elevation_l	scapula_upward_rot_l	scapula_winging_l	shoulder_elv_l	plane_of_elev_l	axial_rot_l	elbow_flexion_l	pro_sup_l	wrist_flex_l	wrist_dev_l
      3.95000000	     32.97089680	     18.88471739	     28.37233846	   -149.20320862	    825.55685990	      4.73075041	     15.65719911	     45.00000000	     45.00000000	     45.00000000	     45.00000000	  -4344.49575503	  -2245.07737935	    -90.00000000	     17.83192632	   2870.34815050	    202.71702620	     19.34848575	     12.69370940	     12.73917391	    -45.00000000	    -42.94501931	     45.00000000	    -37.06100051	   1179.07277873	  -4964.82748669	     22.91094085	    -26.69605033	    368.67757290	     20.64953245	      8.10368093	    -22.31165903
      3.96000000	     33.35027086	     18.26042042	     27.52216788	   -154.45724402	    827.68098457	      4.61345487	     15.69005836	     45.00000000	     45.00000000	     45.00000000	     45.00000000	  -4344.21235722	  -2244.86003334	    -90.00000000	     17.64387245	   2870.54499291	    201.25766080	     19.39193398	     12.66403171	     12.64234151	    -45.00000000	    -42.81847002	     45.00000000	    -36.80370131	   1179.33237235	  -4964.50720615	     22.89661449	    -26.89820727	    368.63341631	     19.76726838	      7.97171547	    -22.28984378
      3.97000000	     33.72063952	     17.67563148	     26.74147378	   -159.65394100	    829.64731455	      4.53881338	     15.75955106	     45.00000000	     45.00000000	     45.00000000	     45.00000000	  -4343.94716987	  -2244.61423242	    -90.00000000	     17.42819012	   2870.82409066	    200.01424769	     19.42310385	     12.73189725	     12.52522851	    -45.00000000	    -42.71292653	     45.00000000	    -36.73515016	   1179.61667033	  -4964.25531537	     22.85280469	    -27.06952311	    368.65135521	     18.94475693	      7.87691388	    -22.27561547
      3.98000000	     34.07523313	     17.05004889	     25.89476364	   -164.77447919	    831.45067414	      4.51096717	     15.81313633	     45.00000000	     45.00000000	     45.00000000	     45.00000000	  -4343.72799908	  -2244.42846396	    -90.00000000	     17.26964684	   2871.07134008	    199.13561917	     19.47212888	     12.82290479	     12.36979212	    -45.00000000	    -42.67801263	     45.00000000	    -36.48911251	   1179.96693069	  -4964.02225235	     22.80995580	    -27.35834068	    368.69832583	     18.33291249	      7.95154887	    -22.33382275
      3.99000000	     34.35181728	     16.63324275	     25.36196399	   -169.80631029	    833.09037211	      4.53213507	     15.96924762	     45.00000000	     45.00000000	     45.00000000	     45.00000000	  -4343.53480609	  -2243.75466105	    -90.00000000	     16.62921884	   2871.63612956	    198.28231274	     19.42353218	     12.96790956	     12.26679047	    -45.00000000	    -42.32116235	     45.00000000	    -36.96806395	   1180.11586714	  -4963.73905428	     22.84112605	    -27.07207223	    368.60117986	     17.58629510	      7.60589292	    -22.20072359
      4.00000000	     34.69666237	     16.03241151	     24.59534037	   -174.73783474	    834.56826824	      4.60233365	     16.03694176	     45.00000000	     45.00000000	     45.00000000	     45.00000000	  -4343.35235294	  -2243.51071743	    -90.00000000	     16.41407756	   2871.92184859	    197.80833188	     19.41546942	     12.95182135	     12.18140199	    -45.00000000	    -42.22278471	     45.00000000	    -36.94648114	   1180.48899774	  -4963.58797307	     22.78398142	    -27.65439244	    368.66323918	     17.25014097	      7.73623786	    -22.28777345
      4.01000000	     34.97218075	     15.63087535	     24.06747346	   -179.56464785	    835.88998035	      4.71907652	     16.18822095	     45.00000000	     45.00000000	     45.00000000	     45.00000000	  -4343.18038337	  -2242.82678316	    -90.00000000	     15.76171018	   2872.49181456	    197.51677196	     19.34111181	     13.07936346	     12.08713652	    -45.00000000	    -41.94390235	     45.00000000	    -37.44478154	   1180.66145314	  -4963.38910083	     22.76492235	    -27.70881544	    368.60486208	     16.84221667	      7.52594498	    -22.21177935
      4.02000000	     35.26179733	     15.21911988	     23.52305959	   -184.28120717	    837.06196667	      4.87810762	     16.32147773	     45.00000000	     45.00000000	     45.00000000	     45.00000000	  -4343.02296612	  -2242.19282133	    -90.00000000	     15.15965958	   2873.02906044	    197.48283222	     19.26719897	     13.14234805	     11.97214212	    -45.00000000	    -41.69954726	     45.00000000	    -37.84136618	   1180.89409346	  -4963.25284188	     22.69326192	    -27.99220156	    368.61216514	     16.58331776	      7.38606276	    -22.18361401
      4.03000000	     35.53910323	     14.74043782	     22.93032430	   -188.87977006	    838.09099282	      5.07342486	     16.43369720	     45.00000000	     45.00000000	     45.00000000	     45.00000000	  -4342.93941201	  -2241.71622244	    -90.00000000	     14.71123154	   2873.43174187	    197.65612674	     19.20946119	     13.16571778	     11.91227546	    -45.00000000	    -41.47200054	     45.00000000	    -38.13199675	   1181.24430469	  -4963.12795254	     22.63512967	    -28.69448217	    368.70643842	     16.53421746	      7.45306633	    -22.25616836
      4.04000000	     35.78525110	     14.34733733	     22.41239440	   -193.35509314	    838.98564638	      5.29787265	     16.57589610	     45.00000000	     45.00000000	     45.00000000	     45.00000000	  -4342.83626808	  -2241.04049542	    -90.00000000	     14.06277804	   2873.96508432	    197.97738148	     19.11721251	     13.24808316	     11.81527453	    -45.00000000	    -41.22140291	     45.00000000	    -38.59634180	   1181.49053989	  -4963.01835277	     22.57540450	    -29.17995483	    368.71826233	     16.52014527	      7.40584507	    -22.26322068
